# AST/ASF file generated using VICON BodyLanguage
# -----------------------------------------------
:version 1.10
:name VICON
:units
  mass 1.0
  length 0.45
  angle deg
:documentation
   .ast/.asf automatically generated from VICON data using
   VICON BodyBuilder and BodyLanguage model FoxedUp or BRILLIANT.MOD
:root
   order TX TY TZ RX RY RZ
   axis XYZ
   position 0 0 0  
   orientation 0 0 0 
:bonedata
  begin
     id 1 
     name lhipjoint
     direction 0.528046 -0.759594 0.379717 
     length 2.39752 
     axis 0 0 0  XYZ
  end
  begin
     id 2 
     name lfemur
     direction 0.34202 -0.939693 0  
     length 7.31175  
     axis 0 0 20  XYZ
    dof rx ry rz
    limits (-160.0 20.0)
           (-70.0 70.0)
           (-60.0 70.0)
  end
  begin
     id 3 
     name ltibia
     direction 0.34202 -0.939693 0   
     length 7.52482   
     axis 0 0 20   XYZ
    dof rx
    limits (-10.0 170.0)
  end
  begin
     id 4 
     name lfoot
     direction 0.0675379 -0.185559 0.980309   
     length 2.00961   
     axis -90 7.62852e-016 20   XYZ
    dof rx rz
    limits (-45.0 90.0)
           (-70.0 20.0)
  end
  begin
     id 5 
     name ltoes
     direction 1.5352e-011 -4.22286e-011 1   
     length 1.01383   
     axis -90 7.62852e-016 20   XYZ
    dof rx
    limits (-90.0 20.0)
  end
  begin
     id 6 
     name rhipjoint
     direction -0.510274 -0.769251 0.384544   
     length 2.36742  
     axis 0 0 0  XYZ 
  end
  begin
     id 7 
     name rfemur
     direction -0.34202 -0.939693 0   
     length 7.45325   
     axis 0 0 -20   XYZ
    dof rx ry rz
    limits (-160.0 20.0)
           (-70.0 70.0)
           (-70.0 60.0)
  end
  begin
     id 8 
     name rtibia
     direction -0.34202 -0.939693 0   
     length 7.49587   
     axis 0 0 -20   XYZ
    dof rx
    limits (-10.0 170.0)
 end
 begin
     id 9 
     name rfoot
     direction -0.106475 -0.292536 0.950308   
     length 2.20898  
     axis -90 -7.62852e-016 -20   XYZ
    dof rx rz
    limits (-45.0 90.0)
           (-20.0 70.0)
  end
  begin
     id 10 
     name rtoes
     direction -1.53597e-011 -4.22023e-011 1   
     length 1.10065   
     axis -90 -7.62852e-016 -20   XYZ
    dof rx
    limits (-90.0 20.0)
  end
  begin
     id 11 
     name lowerback
     direction 0.0260024 0.998026 -0.0571652   
     length 2.11214   
     axis 0 0 0   XYZ
    dof rx ry rz
    limits (-20.0 45.0)
           (-30.0 30.0)
           (-30.0 30.0)
  end
  begin
     id 12 
     name upperback
     direction 0.0216202 0.999542 -0.0211766   
     length 2.11689   
     axis 0 0 0   XYZ
    dof rx ry rz
    limits (-20.0 45.0)
           (-30.0 30.0)
           (-30.0 30.0)
  end
  begin
     id 13 
     name thorax
     direction 0.00883312 0.999944 0.00589057   
     length 2.11821   
     axis 0 0 0   XYZ
    dof rx ry rz
    limits (-20.0 45.0)
           (-30.0 30.0)
           (-30.0 30.0)
  end
  begin
     id 14 
     name lowerneck
     direction -0.059386 0.994433 0.0870401   
     length 1.81176   
     axis 0 0 0   XYZ
    dof rx ry rz
    limits (-20.0 45.0)
           (-30.0 30.0)
           (-30.0 30.0)
  end
  begin
     id 15 
     name upperneck
     direction 0.0506457 0.97328 -0.223967   
     length 1.82382   
     axis 0 0 0   XYZ
    dof rx ry rz
    limits (-20.0 45.0)
           (-30.0 30.0)
           (-30.0 30.0)
  end
  begin
     id 16
     name head
     direction 0.0205902 0.996147 -0.0852487  
     length 1.84805  
     axis 0 0 0   XYZ
    dof rx ry rz
    limits (-20.0 45.0)
           (-30.0 30.0)
           (-30.0 30.0)
  end
  begin
     id 17 
     name lclavicle
     direction 0.949493 0.303881 -0.0782325  
     length 3.60584  
     axis 0 0 0   XYZ
    dof ry rz
    limits (-20.0 10.0)
           (0.0 20.0)
  end
  begin
     id 18 
     name lhumerus
     direction 1 -4.48965e-011 1.48782e-027   
     length 4.95681   
     axis 180 -30 -90   XYZ
    dof rx ry rz
    limits (-60.0 90.0)
           (-90.0 90.0)
           (-90.0 90.0)
  end
  begin
     id 19
     name lradius
     direction 1 -4.48952e-011 2.06528e-027   
     length 3.40915   
     axis 180 -30 -90   XYZ
    dof rx
    limits (-10.0 170.0)
  end
  begin
     id 20
     name lwrist
     direction 1 -4.48964e-011 1.28021e-027   
     length 1.70457   
     axis -1.61767e-015 90 90   XYZ
    dof ry
    limits (-180.0 0.0)
 end
  begin
     id 21 
     name lhand
     direction 1 -4.49094e-011 2.54887e-027   
     length 0.616403   
     axis -1.63363e-015 90 90   XYZ
    dof rx rz
    limits (-90.0 90.0)
           (-45.0 45.0)
  end
  begin
     id 22 
     name lfingers
     direction 1 -4.49002e-011 5.11407e-027   
     length 0.49696   
     axis -3.26723e-015 90 90   XYZ
    dof rx
    limits (0.0 90.0)
  end
  begin
     id 23
     name lthumb
     direction 0.707107 -6.34998e-011 0.707107   
     length 0.713539   
     axis -90 45 -2.25915e-014   XYZ
    dof rx rz
    limits (-45.0 45.0)
           (-45.0 45.0)
  end
  begin
     id 24 
     name rclavicle
     direction -0.937751 0.334612 -0.0930482   
     length 3.46287  
     axis 0 0 0   XYZ 
    dof ry rz
    limits (-10.0 20.0)
           (-20.0 0.0)
  end
  begin
     id 25 
     name rhumerus
     direction -1 -4.48962e-011 3.59972e-027  
     length 5.352   
     axis 180 30 90   XYZ
    dof rx ry rz
    limits (-90.0 60.0)
           (-90.0 90.0)
           (-90.0 90.0)
  end
  begin
     id 26 
     name rradius
     direction -1 -4.48987e-011 -3.76925e-027   
     length 3.43721   
     axis 180 30 90   XYZ
    dof rx
    limits (-10.0 170.0)
  end
  begin
     id 27 
     name rwrist
     direction -1 -4.48943e-011 1.28112e-027   
     length 1.7186   
     axis -1.61767e-015 -90 -90   XYZ
    dof ry
    limits (-180.0 0.0)
  end
  begin
     id 28
     name rhand
     direction -1 -4.49027e-011 2.55483e-027   
     length 0.72009   
     axis -1.63363e-015 -90 -90   XYZ
    dof rx rz
    limits (-90.0 90.0)
           (-45.0 45.0)
  end
  begin
     id 29
     name rfingers
     direction -1 -4.48827e-011 5.14506e-027   
     length 0.580555   
     axis -3.26723e-015 -90 -90   XYZ
    dof rx
    limits (0.0 90.0)
  end
  begin
     id 30
     name rthumb
     direction -0.707107 -6.34936e-011 0.707107   
     length 0.833564   
     axis -90 -45 2.25915e-014   XYZ
    dof rx rz
    limits (-45.0 45.0)
           (-45.0 45.0)
  end
:hierarchy
  begin
    root lhipjoint rhipjoint lowerback
    lhipjoint lfemur
    lfemur ltibia
    ltibia lfoot
    lfoot ltoes
    rhipjoint rfemur
    rfemur rtibia
    rtibia rfoot
    rfoot rtoes
    lowerback upperback
    upperback thorax
    thorax lowerneck lclavicle rclavicle
    lowerneck upperneck
    upperneck head
    lclavicle lhumerus
    lhumerus lradius
    lradius lwrist
    lwrist lhand lthumb
    lhand lfingers
    rclavicle rhumerus
    rhumerus rradius
    rradius rwrist
    rwrist rhand rthumb
    rhand rfingers
  end

#!OML:ASF H:\Terrain\Patient Classification 1\Terrain2\Thursday\justin.ASF
:FULLY-SPECIFIED
:DEGREES
419
root 9.20241 18.003 21.358 -181.171 82.6156 -172.456
lowerback 16.5911 -1.33954 -5.26918
upperback 6.65357 -2.05706 2.59916
thorax -1.86942 -0.966974 6.10457
lowerneck -11.3711 -2.24727 -9.2082
upperneck 39.2531 -0.0557082 3.44041
head 15.8969 -0.306921 3.31476
rclavicle 7.35503e-015 9.93923e-015
rhumerus -29.7655 -6.52773 -78.8315
rradius 40.791
rwrist -13.7655
rhand -22.1414 14.4603
rfingers 7.12502
rthumb 4.27227 -15.4766
lclavicle 7.35503e-015 9.93923e-015
lhumerus -22.5121 -3.20069 85.3777
lradius 38.8676
lwrist 6.71659
lhand -19.5862 18.8937
lfingers 7.12502
lthumb 6.73929 48.7665
rfemur -83.1553 -18.2207 27.6782
rtibia 106.58
rfoot -15.7001 7.23086
rtoes -6.84477
lfemur 19.4714 -0.761873 -23.5204
ltibia 4.13472e-014
lfoot -1.92631 -7.74601
ltoes 0.957562
420
root 9.29646 18.026 21.353 -183.019 82.7391 -174.466
lowerback 16.5743 -1.29506 -5.47877
upperback 6.62178 -2.03718 2.52896
thorax -1.89018 -0.959642 6.14624
lowerneck -11.4246 -2.29719 -9.40575
upperneck 39.3904 -0.0939829 3.54867
head 15.9884 -0.339533 3.39909
rclavicle -7.00716e-015 2.18663e-014
rhumerus -29.7582 -6.23916 -79.0054
rradius 40.3485
rwrist -13.7716
rhand -22.4236 14.9434
rfingers 7.12502
rthumb 3.99977 -14.9988
lclavicle -7.00716e-015 2.18663e-014
lhumerus -22.7204 -3.33263 85.4953
lradius 39.4414
lwrist 7.15664
lhand -19.3891 19.0254
lfingers 7.12502
lthumb 6.92959 48.8919
rfemur -82.7501 -17.8288 27.4498
rtibia 105.676
rfoot -15.6155 7.12766
rtoes -7.13017
lfemur 18.3919 -0.701248 -23.7495
ltibia 2.47469
lfoot -2.78241 -7.77125
ltoes 4.24078
421
root 9.39457 17.9998 21.3461 -186.568 82.736 -178.216
lowerback 16.5342 -1.27735 -5.75115
upperback 6.63506 -2.06158 2.3473
thorax -1.84585 -0.976233 6.10947
lowerneck -11.5971 -2.27773 -9.50133
upperneck 39.4413 -0.0899772 3.72913
head 16.0559 -0.331649 3.50065
rclavicle 2.61402e-014 -7.15625e-015
rhumerus -29.6997 -6.20748 -79.2041
rradius 40.0085
rwrist -13.6911
rhand -22.5225 15.188
rfingers 7.12502
rthumb 3.90418 -14.756
lclavicle 2.61402e-014 -7.15625e-015
lhumerus -22.6579 -3.49031 85.6237
lradius 39.8416
lwrist 7.68644
lhand -19.5338 19.2223
lfingers 7.12502
lthumb 6.7899 49.0934
rfemur -82.5505 -17.6402 26.6061
rtibia 105.507
rfoot -15.374 8.15949
rtoes -3.46855
lfemur 16.7199 -0.732286 -24.2571
ltibia 6.13038
lfoot -4.22408 -7.78135
ltoes 7.05098
422
root 9.4968 17.9397 21.3439 -190.953 82.6176 -182.876
lowerback 16.4217 -1.23401 -6.18407
upperback 6.66553 -2.07257 2.13297
thorax -1.73995 -0.991076 6.12406
lowerneck -11.8237 -2.30279 -9.51186
upperneck 39.4169 -0.191004 3.9184
head 16.1053 -0.354909 3.57065
rclavicle 7.95139e-016 1.07344e-014
rhumerus -29.6673 -6.2524 -79.4039
rradius 39.8522
rwrist -13.5635
rhand -22.3953 15.0362
rfingers 7.12502
rthumb 4.02708 -14.9055
lclavicle 7.95139e-016 1.07344e-014
lhumerus -22.3848 -3.5626 85.8436
lradius 40.1593
lwrist 8.3379
lhand -19.8695 19.5702
lfingers 7.12502
lthumb 6.46576 49.4515
rfemur -82.7241 -17.4144 25.9341
rtibia 105.265
rfoot -15.5618 8.15035
rtoes -4.63486
lfemur 15.3767 -0.837881 -24.8572
ltibia 8.96039
lfoot -5.34563 -7.99141
ltoes 8.69074
423
root 9.59609 17.9041 21.3539 -189.601 82.636 -181.63
lowerback 16.4755 -1.17126 -5.93027
upperback 6.71402 -1.95078 2.0766
thorax -1.74978 -0.924051 5.89867
lowerneck -11.9157 -2.45484 -9.365
upperneck 39.3169 -0.510683 4.00711
head 16.1023 -0.457206 3.52691
rclavicle -3.34455e-014 2.38542e-014
rhumerus -29.7587 -6.28904 -79.699
rradius 39.7987
rwrist -13.6168
rhand -22.5452 14.662
rfingers 7.12502
rthumb 3.88231 -15.2823
lclavicle -3.34455e-014 2.38542e-014
lhumerus -22.2261 -4.11192 86.0055
lradius 40.5277
lwrist 9.04669
lhand -20.1517 19.9726
lfingers 7.12502
lthumb 6.19332 49.8621
rfemur -82.2225 -16.9169 26.2081
rtibia 104.706
rfoot -16.1195 7.424
rtoes -6.14691
lfemur 14.1 -0.93463 -24.5459
ltibia 11.8758
lfoot -6.73309 -8.36727
ltoes 6.50011
424
root 9.69682 17.8763 21.3607 -183.787 82.6417 -175.783
lowerback 16.6432 -1.21612 -4.95712
upperback 6.79941 -1.85525 2.11828
thorax -1.80471 -0.855854 5.37407
lowerneck -11.8968 -2.53062 -9.00891
upperneck 39.0706 -0.764309 4.00167
head 15.9839 -0.511995 3.4057
rclavicle 9.93923e-016 -9.93923e-016
rhumerus -29.7321 -6.73063 -80.0123
rradius 39.5839
rwrist -13.267
rhand -22.6862 14.3459
rfingers 7.12502
rthumb 3.74618 -15.6009
lclavicle 9.93923e-016 -9.93923e-016
lhumerus -22.0917 -4.63208 86.0276
lradius 40.8081
lwrist 9.40612
lhand -19.8261 20.2084
lfingers 7.12502
lthumb 6.5077 50.0884
rfemur -81.4749 -16.5293 27.0398
rtibia 104.296
rfoot -16.3721 6.78422
rtoes -6.74611
lfemur 13.4381 -1.28494 -23.6981
ltibia 13.8943
lfoot -7.65468 -8.59197
ltoes 3.373
425
root 9.79512 17.8645 21.3589 -182.476 82.3907 -174.594
lowerback 16.746 -1.36084 -4.68783
upperback 6.84123 -1.9988 2.16258
thorax -1.80647 -0.921411 5.29475
lowerneck -12.0769 -2.46333 -8.90951
upperneck 38.9678 -0.750606 4.13232
head 15.9684 -0.478099 3.44315
rclavicle 3.49861e-014 -1.68967e-014
rhumerus -29.5945 -6.89429 -80.1674
rradius 39.3031
rwrist -12.8928
rhand -22.5677 14.2884
rfingers 7.12502
rthumb 3.86054 -15.6563
lclavicle 3.49861e-014 -1.68967e-014
lhumerus -22.0066 -4.20304 86.1854
lradius 41.0745
lwrist 9.43994
lhand -19.1659 20.2092
lfingers 7.12502
lthumb 7.14499 50.0686
rfemur -81.0648 -16.6018 27.206
rtibia 104.137
rfoot -16.5817 6.32103
rtoes -7.18446
lfemur 12.8741 -1.72289 -23.5063
ltibia 15.3729
lfoot -8.03329 -9.0081
ltoes 2.80998
426
root 9.89005 17.8931 21.3632 -184.294 82.1406 -176.792
lowerback 16.6067 -1.43297 -5.05363
upperback 6.83669 -2.14565 2.17305
thorax -1.70042 -1.00558 5.53477
lowerneck -12.3311 -2.43516 -8.94336
upperneck 38.8987 -0.738547 4.23586
head 15.9926 -0.469553 3.49459
rclavicle 8.19987e-015 -4.96962e-015
rhumerus -29.5211 -6.54464 -80.3039
rradius 39.1009
rwrist -12.9645
rhand -22.3225 14.3782
rfingers 7.12502
rthumb 4.09732 -15.5622
lclavicle 8.19987e-015 -4.96962e-015
lhumerus -21.9792 -3.86336 86.4843
lradius 41.4846
lwrist 9.95354
lhand -19.7066 20.5599
lfingers 7.12502
lthumb 6.62305 50.4363
rfemur -80.6655 -16.5932 26.8701
rtibia 103.925
rfoot -17.0329 5.95399
rtoes -6.62848
lfemur 12.1803 -1.94116 -23.6535
ltibia 16.4389
lfoot -7.94932 -9.83381
ltoes 3.50831
427
root 9.98698 17.8915 21.3654 -182.005 82.069 -174.873
lowerback 16.5075 -1.52064 -4.67487
upperback 6.80324 -2.20167 2.20542
thorax -1.69498 -1.02809 5.35888
lowerneck -12.3738 -2.44716 -8.83606
upperneck 38.6076 -0.810697 4.19062
head 15.8561 -0.493623 3.42759
rclavicle -2.27608e-014 7.95139e-015
rhumerus -29.4865 -6.34562 -80.572
rradius 38.891
rwrist -13.0294
rhand -22.0411 14.3153
rfingers 7.12502
rthumb 4.36906 -15.6196
lclavicle -2.27608e-014 7.95139e-015
lhumerus -21.9715 -3.87734 86.6743
lradius 41.8879
lwrist 10.6716
lhand -19.3575 20.6642
lfingers 7.12502
lthumb 6.96001 50.5298
rfemur -80.3331 -16.2196 27.1193
rtibia 103.925
rfoot -17.3801 5.51191
rtoes -7.44152
lfemur 11.6784 -2.10107 -23.1754
ltibia 17.1427
lfoot -7.56096 -10.6617
ltoes 3.63386
428
root 10.0765 17.8928 21.3568 -178.432 81.826 -171.501
lowerback 16.7208 -1.67629 -3.86602
upperback 6.74272 -2.28683 2.23043
thorax -1.90189 -1.04863 4.94819
lowerneck -12.3675 -2.48337 -8.73868
upperneck 38.3864 -1.02186 4.43863
head 15.7563 -0.536661 3.47232
rclavicle -1.81391e-014 1.63003e-014
rhumerus -29.5196 -6.583 -80.7935
rradius 38.6693
rwrist -12.8307
rhand -21.9667 14.2188
rfingers 7.12502
rthumb 4.44092 -15.7146
lclavicle -1.81391e-014 1.63003e-014
lhumerus -21.9122 -3.84118 86.8037
lradius 41.9478
lwrist 11.0311
lhand -14.7645 19.1338
lfingers 7.12502
lthumb 11.3919 48.8044
rfemur -79.8508 -16.2043 27.3126
rtibia 104.061
rfoot -17.0195 6.03753
rtoes -5.05466
lfemur 11.2632 -2.367 -22.5221
ltibia 18.0196
lfoot -7.24922 -11.3853
ltoes 4.37808
429
root 10.1732 17.9081 21.3693 -176.407 81.445 -169.719
lowerback 16.8647 -1.70538 -3.49005
upperback 6.69701 -2.26616 2.28194
thorax -2.04497 -1.02719 4.79206
lowerneck -12.4681 -2.62127 -8.44832
upperneck 38.2722 -1.41485 4.66773
head 15.7521 -0.630117 3.45114
rclavicle -1.67973e-014 8.15017e-015
rhumerus -29.6553 -7.08537 -80.8813
rradius 38.4438
rwrist -12.5058
rhand -22.0184 14.5314
rfingers 7.12502
rthumb 4.39105 -15.4031
lclavicle -1.67973e-014 8.15017e-015
lhumerus -21.8208 -4.11786 87.041
lradius 41.8967
lwrist 11.4562
lhand -18.635 19.8704
lfingers 7.12502
lthumb 7.65747 49.7118
rfemur -79.2854 -16.1975 26.7218
rtibia 104.52
rfoot -16.3501 8.4
rtoes 9.59708
lfemur 10.7163 -3.02395 -22.1139
ltibia 19.1223
lfoot -7.1898 -11.727
ltoes 5.10455
430
root 10.2834 17.8918 21.3911 -176.044 81.1232 -169.871
lowerback 16.711 -1.75801 -3.67216
upperback 6.60503 -2.36212 2.42167
thorax -2.03546 -1.08141 5.05749
lowerneck -12.6065 -2.69962 -8.27031
upperneck 38.0453 -1.58863 4.60577
head 15.6817 -0.690551 3.35179
rclavicle -3.51849e-014 2.68359e-014
rhumerus -29.6748 -6.96456 -80.9319
rradius 38.1642
rwrist -12.5113
rhand -21.7043 15.046
rfingers 7.12502
rthumb 4.69427 -14.882
lclavicle -3.51849e-014 2.68359e-014
lhumerus -21.8417 -3.90356 87.4461
lradius 41.9645
lwrist 11.752
lhand -15.6816 18.9791
lfingers 7.12502
lthumb 10.5073 48.6965
rfemur -79.129 -16.1326 27.996
rtibia 103.834
rfoot -18.0493 4.26819
rtoes -4.04746
lfemur 10.0278 -4.02781 -22.1077
ltibia 19.989
lfoot -7.22218 -11.6241
ltoes 3.25288
